<svg width="800" height="800" viewBox="0 0 800 800" fill="none" xmlns="http://www.w3.org/2000/svg">
<g clip-path="url(#clip0_59_2)">
<circle cx="400" cy="400" r="400" fill="#005581"/>
<path d="M216.004 145.004C219.044 145.005 222.085 145.003 225.125 145.002C231.043 144.999 236.962 145 242.88 145.001C247.693 145.003 252.506 145.003 257.319 145.002C258.009 145.002 258.7 145.002 259.411 145.002C260.814 145.002 262.217 145.002 263.62 145.001C276.33 145 289.041 145.001 301.751 145.004C313.32 145.007 324.889 145.007 336.458 145.004C349.516 145.001 362.574 145 375.633 145.002C377.027 145.002 378.421 145.002 379.814 145.002C380.843 145.002 380.843 145.002 381.892 145.002C386.699 145.003 391.505 145.002 396.312 145.001C402.169 144.999 408.027 145 413.885 145.003C416.867 145.004 419.849 145.005 422.831 145.003C425.569 145.001 428.306 145.002 431.044 145.005C432.026 145.006 433.007 145.005 433.989 145.004C443.176 144.992 452.394 145.2 461.537 146.153C462.043 146.204 462.549 146.254 463.07 146.307C464.665 146.469 466.259 146.638 467.854 146.81C468.684 146.898 468.684 146.898 469.531 146.988C479.103 148.02 488.45 149.475 497.844 151.607C498.675 151.788 498.675 151.788 499.524 151.973C506.556 153.52 513.382 155.599 520.208 157.866C520.581 157.99 520.955 158.113 521.339 158.241C527.823 160.402 534.381 162.631 540.45 165.801C541.506 166.349 542.576 166.853 543.656 167.353C569.621 179.366 594.027 197.396 611.732 220.026C612.728 221.276 612.728 221.276 613.813 222.309C615.233 223.747 616.445 225.318 617.666 226.923C618.013 227.373 618.013 227.373 618.368 227.833C619.851 229.77 621.228 231.754 622.568 233.795C622.977 234.401 623.388 235.007 623.799 235.613C626.774 240.012 629.592 244.478 632.284 249.056C632.941 250.165 633.609 251.267 634.28 252.369C637.467 257.637 640.223 263.003 642.719 268.629C643.146 269.585 643.146 269.585 643.581 270.56C646.429 277.079 648.947 283.737 651.434 290.401C651.645 290.965 651.856 291.529 652.074 292.111C654.798 299.558 657.215 307.129 658.71 314.924C659.027 316.53 659.027 316.53 659.58 318.049C660.314 320.302 660.755 322.572 661.203 324.896C661.289 325.327 661.374 325.759 661.462 326.203C661.755 327.694 662.041 329.186 662.327 330.679C662.454 331.333 662.581 331.988 662.712 332.663C663.723 337.914 664.585 343.178 665.356 348.47C665.415 348.872 665.474 349.273 665.534 349.687C666.837 358.619 667.775 367.517 668.132 376.539C668.149 376.957 668.166 377.374 668.184 377.805C668.197 378.165 668.21 378.526 668.223 378.897C668.299 379.954 668.436 381.006 668.592 382.055C669.026 385.448 668.962 388.862 668.973 392.277C668.977 393.036 668.981 393.794 668.984 394.552C668.995 396.983 668.997 399.414 668.999 401.845C668.999 402.257 668.999 402.67 669 403.094C669.01 415.684 668.713 428.111 667.228 440.626C667.102 441.818 666.976 443.01 666.852 444.202C665.567 456.092 664.001 468.218 660.972 479.802C660.664 481.017 660.383 482.236 660.106 483.459C658.815 489.117 657.344 494.711 655.757 500.294C655.489 501.242 655.489 501.242 655.215 502.209C654.106 506.057 652.855 509.817 651.434 513.561C651.257 514.033 651.08 514.506 650.898 514.993C648.126 522.38 645.339 529.696 641.754 536.732C640.714 538.778 639.706 540.833 638.741 542.914C638.53 543.368 638.319 543.822 638.102 544.289C637.699 545.16 637.299 546.033 636.903 546.907C635.692 549.52 634.293 551.875 632.663 554.248C631.841 555.45 631.059 556.67 630.288 557.906C630.034 558.312 629.781 558.719 629.519 559.138C629.128 559.765 629.128 559.765 628.729 560.404C626.557 563.862 624.338 567.279 622.023 570.644C621.781 570.996 621.539 571.348 621.29 571.711C619.967 573.616 618.594 575.45 617.121 577.243C616.741 577.706 616.361 578.169 615.97 578.646C615.575 579.126 615.18 579.606 614.772 580.101C612.843 582.445 610.983 584.829 609.175 587.268C608.795 587.694 608.795 587.694 608.407 588.129C608.047 588.129 607.688 588.129 607.317 588.129C607.118 588.596 607.118 588.596 606.915 589.073C606.105 590.526 605.149 591.47 603.947 592.619C602.314 594.21 600.761 595.816 599.284 597.552C597.905 599.159 596.479 600.449 594.791 601.736C594.364 602.163 593.937 602.589 593.497 603.029C592.376 604.15 591.248 605.215 590.059 606.261C589.742 606.539 589.426 606.818 589.099 607.105C588.255 607.723 588.255 607.723 587.165 607.723C586.986 608.262 586.806 608.801 586.621 609.356C585.844 610.058 585.844 610.058 584.817 610.785C582.932 612.141 581.078 613.526 579.234 614.935C576.352 617.101 573.392 619.118 570.371 621.086C568.439 622.349 566.635 623.692 564.835 625.141C563.751 625.695 562.661 626.238 561.567 626.774C560.758 627.256 559.953 627.744 559.15 628.236C548.78 634.482 537.753 639.436 526.403 643.613C525.744 643.857 525.084 644.101 524.404 644.352C520.38 645.804 516.352 646.992 512.214 648.055C510.717 648.453 509.269 648.891 507.809 649.4C482.517 658.127 454.676 658.056 428.286 657.988C424.799 657.981 421.312 657.983 417.824 657.984C411.808 657.986 405.791 657.98 399.774 657.971C393.477 657.961 387.179 657.955 380.881 657.953C380.487 657.953 380.093 657.953 379.687 657.953C377.684 657.952 375.681 657.952 373.678 657.951C359.559 657.948 345.44 657.937 331.321 657.922C317.621 657.906 303.92 657.895 290.219 657.888C289.795 657.888 289.371 657.888 288.935 657.887C284.679 657.885 280.424 657.883 276.169 657.881C267.503 657.877 258.837 657.872 250.171 657.867C249.773 657.867 249.375 657.867 248.965 657.867C222.45 657.852 195.936 657.826 169.422 657.798C169.75 655.257 170.135 653.352 171.362 651.097C172.807 648.337 174.101 645.547 175.345 642.694C176.909 639.125 178.58 635.633 180.353 632.163C181.618 629.667 182.759 627.137 183.855 624.563C185.269 621.243 186.877 618.082 188.61 614.919C189.817 612.697 190.799 610.482 191.684 608.119C192.666 605.741 193.851 603.465 195.025 601.176C196.179 598.916 197.241 596.632 198.261 594.309C199.28 592.024 200.371 589.773 201.454 587.517C203.045 584.189 204.63 580.86 206.186 577.515C207.875 573.882 209.603 570.267 211.334 566.654C212.932 563.306 214.488 559.941 216.03 556.568C218.394 551.401 220.82 546.326 223.557 541.347C224.544 539.472 225.332 537.575 226.071 535.592C226.606 534.254 227.212 532.991 227.867 531.708C229.277 528.919 230.643 526.111 231.988 523.29C232.342 522.549 232.342 522.549 232.702 521.794C234.307 518.412 235.837 515.005 237.319 511.568C238.727 508.316 240.305 505.17 241.934 502.024C243.439 499.076 244.791 496.08 246.115 493.048C247.684 489.463 249.395 486.001 251.269 482.567C252.415 480.464 253.458 478.354 254.399 476.154C256.595 471.045 259.04 466.036 261.416 461.009C262.206 459.336 262.988 457.658 263.765 455.979C263.962 455.555 264.158 455.132 264.361 454.696C264.739 453.882 265.116 453.066 265.49 452.25C266.791 449.457 266.791 449.457 268.003 448.246C269.081 448.308 269.081 448.308 270.181 448.79C270.868 449.772 270.868 449.772 271.452 451.057C271.671 451.528 271.89 452 272.115 452.486C272.342 452.995 272.569 453.504 272.803 454.029C273.163 454.813 273.163 454.813 273.531 455.612C274.016 456.665 274.497 457.72 274.974 458.776C275.801 460.603 276.649 462.419 277.5 464.234C277.947 465.193 277.947 465.193 278.402 466.171C281.629 473.07 284.923 479.937 288.355 486.737C289.533 489.079 290.639 491.443 291.708 493.837C292.852 496.344 294.046 498.828 295.235 501.314C296.144 503.219 297.052 505.124 297.958 507.029C298.125 507.379 298.291 507.728 298.463 508.088C298.854 508.913 299.241 509.74 299.626 510.567C299.824 510.988 300.021 511.409 300.224 511.843C300.726 513.13 300.994 514.379 301.226 515.738C301.586 515.738 301.945 515.738 302.316 515.738C302.468 516.121 302.62 516.504 302.777 516.899C303.795 519.404 304.819 521.886 306.069 524.285C306.242 524.618 306.415 524.952 306.594 525.295C307.094 526.244 307.604 527.189 308.113 528.133C308.898 530 309.066 531.156 308.851 533.155C308.379 534.19 307.897 535.222 307.358 536.223C306.574 537.695 305.873 539.193 305.175 540.707C304.896 541.314 304.616 541.92 304.328 542.544C303.664 544.001 303.018 545.465 302.379 546.933C300.467 551.318 298.466 555.595 296.174 559.795C295.027 561.9 293.984 564.011 293.042 566.213C291.052 570.843 288.841 575.382 286.68 579.935C286.342 580.648 286.342 580.648 285.997 581.376C285.445 582.539 284.894 583.701 284.342 584.863C304.898 584.819 325.454 584.768 346.01 584.711C348.444 584.704 350.879 584.697 353.314 584.69C353.799 584.689 354.283 584.688 354.783 584.686C362.598 584.665 370.414 584.647 378.229 584.631C386.267 584.613 394.305 584.592 402.343 584.568C407.29 584.553 412.238 584.541 417.185 584.533C420.592 584.527 423.999 584.517 427.406 584.504C429.363 584.497 431.319 584.492 433.276 584.491C446.188 584.483 459.138 584.193 471.871 581.87C472.549 581.754 473.228 581.638 473.927 581.519C477.06 580.973 480.093 580.347 483.138 579.42C485.039 578.956 486.951 578.532 488.861 578.107C497.959 576.025 507.066 572.385 515.272 567.99C516.106 567.563 516.94 567.137 517.774 566.712C522.441 564.322 526.858 561.88 531.067 558.737C531.632 558.355 532.197 557.974 532.78 557.581C539.209 553.227 544.661 547.892 550.13 542.408C550.716 541.841 550.716 541.841 551.315 541.262C554.982 537.691 558.303 533.942 560.954 529.549C561.336 528.943 561.718 528.337 562.112 527.713C562.471 527.713 562.831 527.713 563.201 527.713C563.35 527.31 563.499 526.907 563.652 526.492C564.25 525.086 564.909 523.988 565.788 522.746C567.395 520.401 568.748 517.971 570.067 515.455C570.826 514.105 570.826 514.105 571.645 513.036C573.24 510.868 574.182 508.315 575.272 505.867C575.717 504.877 576.175 503.894 576.634 502.911C579.159 497.432 581.063 491.793 582.919 486.057C583.502 484.255 584.112 482.475 584.791 480.708C585.428 479.004 585.929 477.363 586.349 475.597C586.869 473.431 587.4 471.27 587.948 469.112C590.427 459.204 592.008 449.273 592.988 439.111C593.157 437.904 593.157 437.904 593.701 436.816C595.244 426.241 594.962 415.359 594.933 404.7C594.926 402.436 594.93 400.171 594.936 397.906C595.67 381.474 595.67 381.474 593.157 365.513C592.988 364.261 592.84 363.006 592.703 361.75C592.618 360.985 592.532 360.219 592.445 359.453C592.378 358.854 592.378 358.854 592.309 358.243C591.587 351.874 590.798 345.628 589.1 339.433C588.614 337.598 588.191 335.75 587.76 333.902C585.241 323.132 581.97 312.989 577.362 302.92C577.162 302.471 576.963 302.023 576.758 301.561C570.577 287.743 562.973 275.557 552.853 264.275C552.593 263.982 552.333 263.688 552.065 263.386C548.898 259.814 545.651 256.432 541.96 253.389C541.414 252.938 540.867 252.487 540.305 252.022C526.948 241.181 511.492 232.304 494.85 227.665C493.651 227.312 492.484 226.915 491.303 226.504C473.263 220.462 454.232 219.461 435.38 219.517C433.351 219.522 431.322 219.52 429.293 219.519C425.796 219.518 422.298 219.522 418.8 219.528C413.743 219.537 408.686 219.54 403.63 219.541C395.421 219.543 387.212 219.551 379.004 219.561C371.04 219.571 363.076 219.579 355.112 219.583C354.373 219.584 354.373 219.584 353.619 219.584C351.147 219.586 348.675 219.587 346.204 219.588C325.765 219.6 305.326 219.619 284.887 219.643C285.566 221.185 286.247 222.726 286.929 224.267C287.214 224.913 287.214 224.913 287.504 225.572C288.74 228.362 290.041 231.108 291.423 233.829C291.612 234.202 291.801 234.575 291.995 234.959C292.165 235.294 292.335 235.629 292.51 235.974C295.132 241.167 297.563 246.449 299.865 251.79C301.3 255.119 302.866 258.362 304.505 261.594C307.452 267.415 310.134 273.355 312.751 279.33C314.107 282.411 315.59 285.415 317.132 288.407C318.626 291.316 319.963 294.28 321.276 297.273C322.695 300.502 324.174 303.686 325.769 306.832C328.445 312.107 330.941 317.452 333.322 322.866C335.065 326.827 336.886 330.725 338.845 334.583C340.563 337.972 342.166 341.408 343.76 344.856C344.642 346.756 345.538 348.65 346.432 350.545C347.778 353.4 349.117 356.257 350.449 359.118C354.99 368.872 354.99 368.872 359.776 378.508C361.713 382.334 363.38 386.267 365.07 390.207C367.22 395.186 369.554 400.068 372.149 404.832C372.575 405.791 372.575 405.791 372.575 407.424C372.934 407.424 373.294 407.424 373.664 407.424C374.031 408.296 374.393 409.169 374.754 410.043C374.956 410.53 375.158 411.016 375.366 411.517C375.843 412.867 375.843 412.867 375.843 414.5C376.202 414.5 376.562 414.5 376.932 414.5C377.078 414.87 377.224 415.241 377.375 415.622C378.877 419.337 380.559 422.906 382.371 426.477C383.79 429.279 385.128 432.11 386.434 434.966C387.409 437.096 388.396 439.22 389.391 441.34C389.664 441.923 389.664 441.923 389.943 442.518C391.236 445.256 392.583 447.962 393.952 450.661C395.296 453.312 396.503 455.966 397.556 458.745C399.013 462.229 400.815 465.567 402.53 468.929C402.675 469.363 402.82 469.796 402.969 470.243C403.618 471.305 403.618 471.305 405.338 471.428C407.277 471.634 409.147 471.721 411.096 471.723C412.132 471.724 412.132 471.724 413.19 471.726C413.926 471.724 414.662 471.721 415.398 471.718C415.773 471.717 416.148 471.716 416.535 471.715C433.721 471.66 450.334 471.431 464.075 459.676C464.873 458.768 465.646 457.838 466.39 456.886C466.764 456.414 467.137 455.941 467.522 455.453C468.44 454.297 468.44 454.297 468.977 453.144C469.337 453.144 469.696 453.144 470.067 453.144C470.214 452.759 470.361 452.374 470.513 451.977C471.174 450.379 471.929 448.865 472.722 447.327C475.01 442.77 476.718 438.4 477.849 433.42C478.236 431.917 478.236 431.917 478.772 430.716C481.943 422.002 481.122 411.178 481.13 402.049C481.132 401.509 481.133 400.968 481.135 400.411C481.156 389.868 480.894 378.915 477.692 368.779C477.56 368.325 477.428 367.87 477.292 367.401C473.092 353.708 465.287 343.451 452.638 336.666C444.293 332.325 434.389 331.992 425.195 332.118C424.17 332.124 423.146 332.128 422.121 332.131C419.456 332.143 416.79 332.166 414.125 332.194C409.856 332.235 405.587 332.256 401.318 332.278C399.848 332.288 398.378 332.302 396.908 332.317C392.502 332.356 388.108 332.331 383.707 332.109C383.127 332.084 383.127 332.084 382.537 332.058C380.589 331.942 379.685 331.787 378.021 330.679C377.599 329.762 377.181 328.843 376.808 327.905C376.155 326.296 375.342 324.773 374.549 323.229C373.35 320.869 372.237 318.509 371.247 316.051C370.02 313.017 368.589 310.114 367.097 307.203C366.173 305.396 365.293 303.582 364.478 301.723C363.071 298.522 361.538 295.384 360.014 292.238C359.38 290.926 358.746 289.613 358.112 288.3C357.874 287.808 357.874 287.808 357.631 287.305C355.882 283.684 354.14 280.059 352.414 276.427C351.175 273.823 349.917 271.231 348.623 268.653C348.364 268.129 348.105 267.605 347.838 267.065C347.343 266.068 346.842 265.073 346.334 264.083C346.115 263.639 345.897 263.195 345.672 262.738C345.477 262.35 345.281 261.962 345.079 261.563C344.707 260.11 345.183 259.565 345.887 258.288C361.821 257.62 377.766 257.624 393.711 257.614C397.665 257.611 401.62 257.601 405.574 257.586C408.692 257.574 411.809 257.569 414.927 257.568C416.763 257.567 418.598 257.563 420.434 257.554C434.078 257.491 449.08 257.484 462.19 261.679C463.525 262.096 464.864 262.438 466.22 262.778C470.878 264.031 475.367 265.827 479.87 267.541C480.458 267.763 481.045 267.986 481.651 268.215C483.933 269.101 485.946 270.074 488.04 271.351C488.577 271.648 489.114 271.946 489.667 272.252C503.484 279.911 516.098 290.242 525.62 302.92C525.859 303.235 526.098 303.55 526.344 303.874C533.159 312.931 538.908 322.842 543.049 333.4C543.26 333.931 543.26 333.931 543.475 334.472C548.346 346.791 551.533 359.335 553.232 372.471C553.444 374.017 553.723 375.547 554.01 377.08C555.326 384.883 555.133 392.949 555.132 400.838C555.133 402.544 555.143 404.25 555.154 405.956C555.17 411.716 555.016 417.43 554.548 423.172C554.485 423.96 554.485 423.96 554.42 424.763C554.157 427.688 553.732 430.529 553.117 433.401C552.841 434.693 552.6 435.988 552.366 437.288C551.467 442.21 550.484 447.096 549.279 451.954C549.171 452.392 549.063 452.83 548.952 453.281C548.25 456.044 547.342 458.65 546.317 461.309C546.056 462.167 545.805 463.029 545.568 463.894C543.802 469.861 541.002 475.395 538.147 480.903C537.89 481.401 537.633 481.898 537.369 482.411C532.04 492.444 525.581 502.317 517.451 510.295C516.923 510.827 516.396 511.36 515.87 511.894C515.319 512.45 514.768 513.005 514.217 513.561C513.945 513.837 513.673 514.114 513.393 514.399C510.518 517.29 507.361 519.81 504.141 522.304C503.704 522.647 503.704 522.647 503.259 522.998C497.87 527.168 497.87 527.168 495.665 527.168C495.665 527.527 495.665 527.887 495.665 528.257C494.362 528.976 493.057 529.689 491.75 530.4C491.383 530.603 491.017 530.806 490.639 531.015C488.69 532.07 487.006 532.882 484.772 533.155C484.772 533.515 484.772 533.874 484.772 534.244C484.305 534.422 483.838 534.599 483.357 534.782C479.489 536.24 479.489 536.24 475.683 537.85C473.753 538.651 471.816 539.25 469.809 539.825C468.858 540.106 467.915 540.412 466.98 540.739C450.776 545.922 433.76 545.761 416.936 545.746C415.457 545.747 413.978 545.747 412.499 545.748C409.419 545.749 406.339 545.748 403.258 545.745C399.721 545.742 396.183 545.743 392.646 545.746C389.579 545.749 386.512 545.749 383.445 545.747C381.626 545.747 379.807 545.747 377.988 545.748C363.539 545.758 363.539 545.758 356.78 545.13C356.511 544.501 356.241 543.873 355.963 543.225C354.865 540.743 353.651 538.33 352.423 535.911C351.231 533.561 350.081 531.238 349.155 528.767C348.107 525.992 346.684 523.451 345.265 520.853C344.328 519.122 343.446 517.426 342.79 515.568C342.23 513.997 341.64 512.647 340.883 511.175C339.143 507.734 337.53 504.237 335.913 500.736C335.285 499.378 334.656 498.02 334.026 496.662C333.725 496.011 333.423 495.359 333.112 494.688C331.876 492.026 330.626 489.37 329.372 486.716C328.561 485 327.753 483.282 326.957 481.558C325.378 478.147 323.761 474.764 322.059 471.412C319.349 466.065 316.896 460.6 314.416 455.144C313.579 453.306 312.731 451.473 311.881 449.641C311.415 448.632 310.95 447.622 310.485 446.613C310.261 446.127 310.037 445.642 309.807 445.142C309.604 444.695 309.401 444.249 309.192 443.789C309.019 443.411 308.846 443.033 308.668 442.643C308.307 441.714 308.307 441.714 308.307 440.626C307.947 440.626 307.588 440.626 307.217 440.626C306.998 440.011 306.998 440.011 306.775 439.384C305.345 435.511 303.701 431.866 301.819 428.197C300.504 425.619 299.303 423.01 298.163 420.351C296.399 416.245 294.433 412.266 292.382 408.296C290.989 405.565 289.735 402.792 288.529 399.974C287.293 397.094 285.958 394.316 284.444 391.571C282.332 387.733 280.536 383.776 278.745 379.78C276.501 374.79 274.063 369.915 271.562 365.05C270.476 362.919 269.476 360.806 268.616 358.574C267.489 355.67 266.091 352.923 264.669 350.156C263.867 348.571 263.126 346.965 262.397 345.345C260.887 342.001 259.283 338.705 257.675 335.407C255.071 330.063 252.511 324.715 250.21 319.232C249.536 317.641 249.536 317.641 248.708 316.34C247.74 314.707 247.001 313.033 246.244 311.295C245.326 309.208 244.339 307.154 243.358 305.097C242.925 304.188 242.492 303.278 242.06 302.369C241.844 301.916 241.628 301.462 241.406 300.995C240.806 299.73 240.211 298.462 239.617 297.194C237.983 293.702 236.335 290.227 234.575 286.795C232.875 283.44 231.389 280.013 229.912 276.556C228.183 272.511 226.352 268.594 224.223 264.746C223.032 262.584 222.089 260.423 221.221 258.118C220.445 256.232 219.532 254.424 218.61 252.607C215.238 245.962 212.099 239.206 208.953 232.452C207.659 229.675 206.352 226.905 205.043 224.134C203.849 221.6 202.667 219.061 201.492 216.518C197.558 207.984 197.558 207.984 193.402 199.556C190.762 194.341 188.386 188.994 185.949 183.682C184.451 180.421 182.928 177.171 181.404 173.923C181.05 173.163 180.695 172.403 180.34 171.643C178.606 167.935 176.851 164.242 175.005 160.587C173.783 158.169 172.621 155.744 171.554 153.254C170.862 151.72 170.051 150.255 169.224 148.789C168.787 147.538 169.064 146.87 169.422 145.619C184.952 145.172 200.468 144.994 216.004 145.004Z" fill="#B9A06C"/>
</g>
<defs>
<clipPath id="clip0_59_2">
<rect width="800" height="800" fill="white"/>
</clipPath>
</defs>
</svg>
